{
	"asset":{
		"generator":"Khronos glTF Blender I/O v4.4.56",
		"version":"2.0"
	},
	"scene":0,
	"scenes":[
		{
			"name":"Scene",
			"nodes":[
				0,
				1,
				2,
				3,
				4,
				5,
				6,
				7,
				8,
				9,
				10,
				11,
				12,
				13,
				14,
				15,
				16
			]
		}
	],
	"nodes":[
		{
			"mesh":0,
			"name":"Cube",
			"translation":[
				-0.005663871765136719,
				1.2839581966400146,
				0.7502615451812744
			]
		},
		{
			"mesh":1,
			"name":"Cube.001",
			"rotation":[
				-0.03067956678569317,
				-0.017738530412316322,
				-0.2655465304851532,
				0.9634464979171753
			],
			"scale":[
				0.25987792015075684,
				0.15151697397232056,
				0.1566624790430069
			],
			"translation":[
				0.43735766410827637,
				1.9843754768371582,
				0.6745423078536987
			]
		},
		{
			"mesh":2,
			"name":"Cube.002",
			"rotation":[
				0.2407209277153015,
				-0.24028067290782928,
				-0.12370800971984863,
				0.9322097897529602
			],
			"scale":[
				0.10735435783863068,
				0.13032779097557068,
				0.20368298888206482
			],
			"translation":[
				0.5013124346733093,
				1.126123309135437,
				1.1901477575302124
			]
		},
		{
			"mesh":3,
			"name":"Cube.003",
			"scale":[
				-0.23450781404972076,
				-0.10932987928390503,
				-0.5653885006904602
			],
			"translation":[
				0.524949312210083,
				-0.01650547981262207,
				1.0812714099884033
			]
		},
		{
			"mesh":4,
			"name":"Sphere",
			"rotation":[
				0.09457492083311081,
				0.02990897186100483,
				-0.02695768140256405,
				0.9947031736373901
			],
			"scale":[
				0.11627551913261414,
				0.11586988717317581,
				0.08785199373960495
			],
			"translation":[
				0.285343736410141,
				1.574479103088379,
				1.0978292226791382
			]
		},
		{
			"mesh":5,
			"name":"Sphere.001",
			"rotation":[
				-0.05650747939944267,
				-0.12207616120576859,
				0.03573524206876755,
				0.9902662634849548
			],
			"scale":[
				0.019533896818757057,
				0.015321663580834866,
				0.016796499490737915
			],
			"translation":[
				0.34692513942718506,
				1.6538641452789307,
				1.1336612701416016
			]
		},
		{
			"mesh":6,
			"name":"Sphere.002",
			"rotation":[
				-0.05650747939944267,
				-0.12207615375518799,
				0.03573524206876755,
				0.9902662634849548
			],
			"scale":[
				0.02548922970890999,
				0.019395967945456505,
				0.021931787952780724
			],
			"translation":[
				0.30055904388427734,
				1.6732417345046997,
				1.137381911277771
			]
		},
		{
			"mesh":7,
			"name":"Plane.002",
			"rotation":[
				0.540847659111023,
				-0.36865895986557007,
				-0.1421228051185608,
				0.7425466179847717
			],
			"scale":[
				0.015916183590888977,
				0.014648348093032837,
				0.020861230790615082
			],
			"translation":[
				0.3779396414756775,
				1.651439905166626,
				1.0460542440414429
			]
		},
		{
			"mesh":8,
			"name":"NurbsPath",
			"rotation":[
				0.04596519097685814,
				0,
				0,
				0.9989430904388428
			],
			"scale":[
				-0.06476294994354248,
				-0.06476294994354248,
				-0.06476294994354248
			],
			"translation":[
				-0.01465553231537342,
				1.442995309829712,
				1.1767988204956055
			]
		},
		{
			"mesh":9,
			"name":"Sphere.003",
			"rotation":[
				-0.009537240490317345,
				-0.018294252455234528,
				-0.03772471472620964,
				0.999075174331665
			],
			"scale":[
				0.2766602337360382,
				0.24880647659301758,
				0.0857473611831665
			],
			"translation":[
				-0.00940714217722416,
				1.0962620973587036,
				1.4611515998840332
			]
		},
		{
			"mesh":10,
			"name":"Sphere.004",
			"rotation":[
				-0.07725764811038971,
				-0.023451881483197212,
				-0.062293641269207,
				0.99478679895401
			],
			"scale":[
				0.037288740277290344,
				0.033534564077854156,
				0.011557177640497684
			],
			"translation":[
				0.08162341266870499,
				1.2339261770248413,
				1.5208892822265625
			]
		},
		{
			"mesh":11,
			"name":"Sphere.005",
			"rotation":[
				-0.07725764811038971,
				-0.023451881483197212,
				-0.062293641269207,
				0.99478679895401
			],
			"scale":[
				0.016985155642032623,
				0.015275112353265285,
				0.005264335311949253
			],
			"translation":[
				-0.0967121422290802,
				1.2109118700027466,
				1.5253111124038696
			]
		},
		{
			"mesh":12,
			"name":"Sphere.006",
			"rotation":[
				0.03009125590324402,
				0.008993785828351974,
				-0.01107511855661869,
				0.9994454383850098
			],
			"scale":[
				0.024935707449913025,
				0.02242521569132805,
				0.005923924967646599
			],
			"translation":[
				0.08162341266870499,
				1.0771218538284302,
				1.546676754951477
			]
		},
		{
			"mesh":13,
			"name":"Sphere.007",
			"rotation":[
				0.02172381803393364,
				-0.03903790935873985,
				-0.07673460245132446,
				0.9960501194000244
			],
			"scale":[
				0.037288740277290344,
				0.033534564077854156,
				0.01155717670917511
			],
			"translation":[
				-0.1693883240222931,
				1.0741612911224365,
				1.5208892822265625
			]
		},
		{
			"mesh":14,
			"name":"Sphere.008",
			"rotation":[
				-0.012274806387722492,
				-0.05180288106203079,
				-0.08923561871051788,
				0.9945867657661438
			],
			"scale":[
				0.04097664728760719,
				0.0368511825799942,
				0.012700200080871582
			],
			"translation":[
				-0.03278017044067383,
				1.1092013120651245,
				1.549038290977478
			]
		},
		{
			"mesh":15,
			"name":"Sphere.009",
			"rotation":[
				0.05054934322834015,
				-0.0482625849545002,
				-0.027839623391628265,
				0.9971662163734436
			],
			"scale":[
				0.043854210525751114,
				0.03943902626633644,
				0.010724019259214401
			],
			"translation":[
				-0.042022328823804855,
				0.9815682768821716,
				1.5381724834442139
			]
		},
		{
			"mesh":16,
			"name":"Sphere.010",
			"rotation":[
				-0.11015380918979645,
				-0.01789829134941101,
				-0.05205147713422775,
				0.9923892617225647
			],
			"scale":[
				0.03457784652709961,
				0.034457217901945114,
				0.02612530067563057
			],
			"translation":[
				0.4399941861629486,
				1.4954955577850342,
				1.0944926738739014
			]
		}
	],
	"materials":[
		{
			"doubleSided":true,
			"name":"Hamsterbody",
			"pbrMetallicRoughness":{
				"baseColorFactor":[
					0.8002511262893677,
					0.5368765592575073,
					0.4782446324825287,
					1
				],
				"metallicFactor":0,
				"roughnessFactor":0.5
			}
		},
		{
			"doubleSided":true,
			"name":"Mouth",
			"pbrMetallicRoughness":{
				"baseColorFactor":[
					0.8002511262893677,
					0.3117986023426056,
					0.27875980734825134,
					1
				],
				"metallicFactor":0,
				"roughnessFactor":0.5
			}
		},
		{
			"doubleSided":true,
			"name":"eyes",
			"pbrMetallicRoughness":{
				"baseColorFactor":[
					0.021034305915236473,
					0.021034305915236473,
					0.021034305915236473,
					1
				],
				"metallicFactor":0,
				"roughnessFactor":0.10738253593444824
			}
		},
		{
			"doubleSided":true,
			"name":"Material.003",
			"pbrMetallicRoughness":{
				"baseColorFactor":[
					0.0794198215007782,
					0.02703695371747017,
					0.016080010682344437,
					1
				],
				"metallicFactor":0,
				"roughnessFactor":0.5
			}
		},
		{
			"doubleSided":true,
			"name":"Material.004",
			"pbrMetallicRoughness":{
				"baseColorFactor":[
					0.8003470301628113,
					0.3243975043296814,
					0.12083806097507477,
					1
				],
				"metallicFactor":0,
				"roughnessFactor":0.5
			}
		},
		{
			"doubleSided":true,
			"name":"Material.005",
			"pbrMetallicRoughness":{
				"baseColorFactor":[
					0.1398077756166458,
					0.052819110453128815,
					0.03646378964185715,
					1
				],
				"metallicFactor":0,
				"roughnessFactor":0.5
			}
		}
	],
	"meshes":[
		{
			"name":"Cube",
			"primitives":[
				{
					"attributes":{
						"POSITION":0,
						"NORMAL":1,
						"TEXCOORD_0":2
					},
					"indices":3,
					"material":0
				}
			]
		},
		{
			"name":"Cube.001",
			"primitives":[
				{
					"attributes":{
						"POSITION":4,
						"NORMAL":5,
						"TEXCOORD_0":6
					},
					"indices":7,
					"material":0
				},
				{
					"attributes":{
						"POSITION":8,
						"NORMAL":9,
						"TEXCOORD_0":10
					},
					"indices":11,
					"material":1
				}
			]
		},
		{
			"name":"Cube.003",
			"primitives":[
				{
					"attributes":{
						"POSITION":12,
						"NORMAL":13,
						"TEXCOORD_0":14
					},
					"indices":15,
					"material":0
				}
			]
		},
		{
			"name":"Cube.004",
			"primitives":[
				{
					"attributes":{
						"POSITION":16,
						"NORMAL":17,
						"TEXCOORD_0":18
					},
					"indices":19,
					"material":0
				}
			]
		},
		{
			"name":"Sphere",
			"primitives":[
				{
					"attributes":{
						"POSITION":20,
						"NORMAL":21,
						"TEXCOORD_0":22
					},
					"indices":23,
					"material":2
				}
			]
		},
		{
			"name":"Sphere.002",
			"primitives":[
				{
					"attributes":{
						"POSITION":24,
						"NORMAL":25,
						"TEXCOORD_0":26
					},
					"indices":23
				}
			]
		},
		{
			"name":"Sphere.003",
			"primitives":[
				{
					"attributes":{
						"POSITION":27,
						"NORMAL":28,
						"TEXCOORD_0":29
					},
					"indices":23
				}
			]
		},
		{
			"name":"Plane.002",
			"primitives":[
				{
					"attributes":{
						"POSITION":30,
						"NORMAL":31,
						"TEXCOORD_0":32
					},
					"indices":33,
					"material":3
				}
			]
		},
		{
			"name":"NurbsPath.001",
			"primitives":[
				{
					"attributes":{
						"POSITION":34,
						"NORMAL":35,
						"TEXCOORD_0":36
					},
					"indices":37,
					"material":1
				}
			]
		},
		{
			"name":"Sphere.004",
			"primitives":[
				{
					"attributes":{
						"POSITION":38,
						"NORMAL":39,
						"TEXCOORD_0":40
					},
					"indices":23,
					"material":4
				}
			]
		},
		{
			"name":"Sphere.006",
			"primitives":[
				{
					"attributes":{
						"POSITION":41,
						"NORMAL":42,
						"TEXCOORD_0":43
					},
					"indices":23,
					"material":5
				}
			]
		},
		{
			"name":"Sphere.007",
			"primitives":[
				{
					"attributes":{
						"POSITION":44,
						"NORMAL":45,
						"TEXCOORD_0":46
					},
					"indices":23,
					"material":5
				}
			]
		},
		{
			"name":"Sphere.008",
			"primitives":[
				{
					"attributes":{
						"POSITION":47,
						"NORMAL":48,
						"TEXCOORD_0":49
					},
					"indices":23,
					"material":5
				}
			]
		},
		{
			"name":"Sphere.009",
			"primitives":[
				{
					"attributes":{
						"POSITION":50,
						"NORMAL":51,
						"TEXCOORD_0":52
					},
					"indices":23,
					"material":5
				}
			]
		},
		{
			"name":"Sphere.010",
			"primitives":[
				{
					"attributes":{
						"POSITION":53,
						"NORMAL":54,
						"TEXCOORD_0":55
					},
					"indices":23,
					"material":5
				}
			]
		},
		{
			"name":"Sphere.011",
			"primitives":[
				{
					"attributes":{
						"POSITION":56,
						"NORMAL":57,
						"TEXCOORD_0":58
					},
					"indices":23,
					"material":5
				}
			]
		},
		{
			"name":"Sphere.012",
			"primitives":[
				{
					"attributes":{
						"POSITION":59,
						"NORMAL":60,
						"TEXCOORD_0":61
					},
					"indices":23,
					"material":1
				}
			]
		}
	],
	"accessors":[
		{
			"bufferView":0,
			"componentType":5126,
			"count":6270,
			"max":[
				1.0272469520568848,
				0.7359856963157654,
				0.600669264793396
			],
			"min":[
				-1.0272469520568848,
				-1.4732502698898315,
				-0.6653220057487488
			],
			"type":"VEC3"
		},
		{
			"bufferView":1,
			"componentType":5126,
			"count":6270,
			"type":"VEC3"
		},
		{
			"bufferView":2,
			"componentType":5126,
			"count":6270,
			"type":"VEC2"
		},
		{
			"bufferView":3,
			"componentType":5123,
			"count":36864,
			"type":"SCALAR"
		},
		{
			"bufferView":4,
			"componentType":5126,
			"count":1905,
			"max":[
				0.8954833149909973,
				1.7609049081802368,
				0.7017170190811157
			],
			"min":[
				-0.8083365559577942,
				-1.3626513481140137,
				-0.7622891664505005
			],
			"type":"VEC3"
		},
		{
			"bufferView":5,
			"componentType":5126,
			"count":1905,
			"type":"VEC3"
		},
		{
			"bufferView":6,
			"componentType":5126,
			"count":1905,
			"type":"VEC2"
		},
		{
			"bufferView":7,
			"componentType":5123,
			"count":10560,
			"type":"SCALAR"
		},
		{
			"bufferView":8,
			"componentType":5126,
			"count":322,
			"max":[
				0.563063383102417,
				1.4183368682861328,
				0.6386421918869019
			],
			"min":[
				-0.4994407892227173,
				-0.5014564990997314,
				0.34271255135536194
			],
			"type":"VEC3"
		},
		{
			"bufferView":9,
			"componentType":5126,
			"count":322,
			"type":"VEC3"
		},
		{
			"bufferView":10,
			"componentType":5126,
			"count":322,
			"type":"VEC2"
		},
		{
			"bufferView":11,
			"componentType":5123,
			"count":1728,
			"type":"SCALAR"
		},
		{
			"bufferView":12,
			"componentType":5126,
			"count":32,
			"max":[
				1.8057615756988525,
				1.1003493070602417,
				3.0623574256896973
			],
			"min":[
				-1.0532983541488647,
				-1.1003499031066895,
				-1
			],
			"type":"VEC3"
		},
		{
			"bufferView":13,
			"componentType":5126,
			"count":32,
			"type":"VEC3"
		},
		{
			"bufferView":14,
			"componentType":5126,
			"count":32,
			"type":"VEC2"
		},
		{
			"bufferView":15,
			"componentType":5123,
			"count":108,
			"type":"SCALAR"
		},
		{
			"bufferView":16,
			"componentType":5126,
			"count":14,
			"max":[
				1,
				1,
				1
			],
			"min":[
				-1,
				-1,
				-1
			],
			"type":"VEC3"
		},
		{
			"bufferView":17,
			"componentType":5126,
			"count":14,
			"type":"VEC3"
		},
		{
			"bufferView":18,
			"componentType":5126,
			"count":14,
			"type":"VEC2"
		},
		{
			"bufferView":19,
			"componentType":5123,
			"count":36,
			"type":"SCALAR"
		},
		{
			"bufferView":20,
			"componentType":5126,
			"count":287,
			"max":[
				1,
				1,
				1
			],
			"min":[
				-0.9999999403953552,
				-1,
				-0.9999999403953552
			],
			"type":"VEC3"
		},
		{
			"bufferView":21,
			"componentType":5126,
			"count":287,
			"type":"VEC3"
		},
		{
			"bufferView":22,
			"componentType":5126,
			"count":287,
			"type":"VEC2"
		},
		{
			"bufferView":23,
			"componentType":5123,
			"count":1440,
			"type":"SCALAR"
		},
		{
			"bufferView":24,
			"componentType":5126,
			"count":287,
			"max":[
				1,
				1,
				1
			],
			"min":[
				-0.9999999403953552,
				-1,
				-0.9999999403953552
			],
			"type":"VEC3"
		},
		{
			"bufferView":25,
			"componentType":5126,
			"count":287,
			"type":"VEC3"
		},
		{
			"bufferView":26,
			"componentType":5126,
			"count":287,
			"type":"VEC2"
		},
		{
			"bufferView":27,
			"componentType":5126,
			"count":287,
			"max":[
				1,
				1,
				1
			],
			"min":[
				-0.9999999403953552,
				-1,
				-0.9999999403953552
			],
			"type":"VEC3"
		},
		{
			"bufferView":28,
			"componentType":5126,
			"count":287,
			"type":"VEC3"
		},
		{
			"bufferView":29,
			"componentType":5126,
			"count":287,
			"type":"VEC2"
		},
		{
			"bufferView":30,
			"componentType":5126,
			"count":24,
			"max":[
				1.085727572441101,
				2.79679274559021,
				2.42702317237854
			],
			"min":[
				-4.781791687011719,
				-0.24499322474002838,
				-1.239699125289917
			],
			"type":"VEC3"
		},
		{
			"bufferView":31,
			"componentType":5126,
			"count":24,
			"type":"VEC3"
		},
		{
			"bufferView":32,
			"componentType":5126,
			"count":24,
			"type":"VEC2"
		},
		{
			"bufferView":33,
			"componentType":5123,
			"count":48,
			"type":"SCALAR"
		},
		{
			"bufferView":34,
			"componentType":5126,
			"count":156,
			"max":[
				0.08589429408311844,
				0.5402721166610718,
				0.1226469948887825
			],
			"min":[
				-2.0882821083068848,
				-0.10321326553821564,
				-0.3041422665119171
			],
			"type":"VEC3"
		},
		{
			"bufferView":35,
			"componentType":5126,
			"count":156,
			"type":"VEC3"
		},
		{
			"bufferView":36,
			"componentType":5126,
			"count":156,
			"type":"VEC2"
		},
		{
			"bufferView":37,
			"componentType":5123,
			"count":792,
			"type":"SCALAR"
		},
		{
			"bufferView":38,
			"componentType":5126,
			"count":287,
			"max":[
				1.0189108848571777,
				0.9380165338516235,
				1
			],
			"min":[
				-1.055591106414795,
				-1.0204249620437622,
				-0.9999999403953552
			],
			"type":"VEC3"
		},
		{
			"bufferView":39,
			"componentType":5126,
			"count":287,
			"type":"VEC3"
		},
		{
			"bufferView":40,
			"componentType":5126,
			"count":287,
			"type":"VEC2"
		},
		{
			"bufferView":41,
			"componentType":5126,
			"count":287,
			"max":[
				1,
				1,
				1
			],
			"min":[
				-0.9999999403953552,
				-1,
				-0.9999999403953552
			],
			"type":"VEC3"
		},
		{
			"bufferView":42,
			"componentType":5126,
			"count":287,
			"type":"VEC3"
		},
		{
			"bufferView":43,
			"componentType":5126,
			"count":287,
			"type":"VEC2"
		},
		{
			"bufferView":44,
			"componentType":5126,
			"count":287,
			"max":[
				1,
				1,
				1
			],
			"min":[
				-0.9999999403953552,
				-1,
				-0.9999999403953552
			],
			"type":"VEC3"
		},
		{
			"bufferView":45,
			"componentType":5126,
			"count":287,
			"type":"VEC3"
		},
		{
			"bufferView":46,
			"componentType":5126,
			"count":287,
			"type":"VEC2"
		},
		{
			"bufferView":47,
			"componentType":5126,
			"count":287,
			"max":[
				1,
				1,
				1
			],
			"min":[
				-0.9999999403953552,
				-1,
				-0.9999999403953552
			],
			"type":"VEC3"
		},
		{
			"bufferView":48,
			"componentType":5126,
			"count":287,
			"type":"VEC3"
		},
		{
			"bufferView":49,
			"componentType":5126,
			"count":287,
			"type":"VEC2"
		},
		{
			"bufferView":50,
			"componentType":5126,
			"count":287,
			"max":[
				1,
				1,
				1
			],
			"min":[
				-0.9999999403953552,
				-1,
				-0.9999999403953552
			],
			"type":"VEC3"
		},
		{
			"bufferView":51,
			"componentType":5126,
			"count":287,
			"type":"VEC3"
		},
		{
			"bufferView":52,
			"componentType":5126,
			"count":287,
			"type":"VEC2"
		},
		{
			"bufferView":53,
			"componentType":5126,
			"count":287,
			"max":[
				1,
				1,
				1
			],
			"min":[
				-0.9999999403953552,
				-1,
				-0.9999999403953552
			],
			"type":"VEC3"
		},
		{
			"bufferView":54,
			"componentType":5126,
			"count":287,
			"type":"VEC3"
		},
		{
			"bufferView":55,
			"componentType":5126,
			"count":287,
			"type":"VEC2"
		},
		{
			"bufferView":56,
			"componentType":5126,
			"count":287,
			"max":[
				1,
				1,
				1
			],
			"min":[
				-0.9999999403953552,
				-1,
				-0.9999999403953552
			],
			"type":"VEC3"
		},
		{
			"bufferView":57,
			"componentType":5126,
			"count":287,
			"type":"VEC3"
		},
		{
			"bufferView":58,
			"componentType":5126,
			"count":287,
			"type":"VEC2"
		},
		{
			"bufferView":59,
			"componentType":5126,
			"count":287,
			"max":[
				1,
				1,
				1
			],
			"min":[
				-0.9999999403953552,
				-1,
				-0.9999999403953552
			],
			"type":"VEC3"
		},
		{
			"bufferView":60,
			"componentType":5126,
			"count":287,
			"type":"VEC3"
		},
		{
			"bufferView":61,
			"componentType":5126,
			"count":287,
			"type":"VEC2"
		}
	],
	"bufferViews":[
		{
			"buffer":0,
			"byteLength":75240,
			"byteOffset":0,
			"target":34962
		},
		{
			"buffer":0,
			"byteLength":75240,
			"byteOffset":75240,
			"target":34962
		},
		{
			"buffer":0,
			"byteLength":50160,
			"byteOffset":150480,
			"target":34962
		},
		{
			"buffer":0,
			"byteLength":73728,
			"byteOffset":200640,
			"target":34963
		},
		{
			"buffer":0,
			"byteLength":22860,
			"byteOffset":274368,
			"target":34962
		},
		{
			"buffer":0,
			"byteLength":22860,
			"byteOffset":297228,
			"target":34962
		},
		{
			"buffer":0,
			"byteLength":15240,
			"byteOffset":320088,
			"target":34962
		},
		{
			"buffer":0,
			"byteLength":21120,
			"byteOffset":335328,
			"target":34963
		},
		{
			"buffer":0,
			"byteLength":3864,
			"byteOffset":356448,
			"target":34962
		},
		{
			"buffer":0,
			"byteLength":3864,
			"byteOffset":360312,
			"target":34962
		},
		{
			"buffer":0,
			"byteLength":2576,
			"byteOffset":364176,
			"target":34962
		},
		{
			"buffer":0,
			"byteLength":3456,
			"byteOffset":366752,
			"target":34963
		},
		{
			"buffer":0,
			"byteLength":384,
			"byteOffset":370208,
			"target":34962
		},
		{
			"buffer":0,
			"byteLength":384,
			"byteOffset":370592,
			"target":34962
		},
		{
			"buffer":0,
			"byteLength":256,
			"byteOffset":370976,
			"target":34962
		},
		{
			"buffer":0,
			"byteLength":216,
			"byteOffset":371232,
			"target":34963
		},
		{
			"buffer":0,
			"byteLength":168,
			"byteOffset":371448,
			"target":34962
		},
		{
			"buffer":0,
			"byteLength":168,
			"byteOffset":371616,
			"target":34962
		},
		{
			"buffer":0,
			"byteLength":112,
			"byteOffset":371784,
			"target":34962
		},
		{
			"buffer":0,
			"byteLength":72,
			"byteOffset":371896,
			"target":34963
		},
		{
			"buffer":0,
			"byteLength":3444,
			"byteOffset":371968,
			"target":34962
		},
		{
			"buffer":0,
			"byteLength":3444,
			"byteOffset":375412,
			"target":34962
		},
		{
			"buffer":0,
			"byteLength":2296,
			"byteOffset":378856,
			"target":34962
		},
		{
			"buffer":0,
			"byteLength":2880,
			"byteOffset":381152,
			"target":34963
		},
		{
			"buffer":0,
			"byteLength":3444,
			"byteOffset":384032,
			"target":34962
		},
		{
			"buffer":0,
			"byteLength":3444,
			"byteOffset":387476,
			"target":34962
		},
		{
			"buffer":0,
			"byteLength":2296,
			"byteOffset":390920,
			"target":34962
		},
		{
			"buffer":0,
			"byteLength":3444,
			"byteOffset":393216,
			"target":34962
		},
		{
			"buffer":0,
			"byteLength":3444,
			"byteOffset":396660,
			"target":34962
		},
		{
			"buffer":0,
			"byteLength":2296,
			"byteOffset":400104,
			"target":34962
		},
		{
			"buffer":0,
			"byteLength":288,
			"byteOffset":402400,
			"target":34962
		},
		{
			"buffer":0,
			"byteLength":288,
			"byteOffset":402688,
			"target":34962
		},
		{
			"buffer":0,
			"byteLength":192,
			"byteOffset":402976,
			"target":34962
		},
		{
			"buffer":0,
			"byteLength":96,
			"byteOffset":403168,
			"target":34963
		},
		{
			"buffer":0,
			"byteLength":1872,
			"byteOffset":403264,
			"target":34962
		},
		{
			"buffer":0,
			"byteLength":1872,
			"byteOffset":405136,
			"target":34962
		},
		{
			"buffer":0,
			"byteLength":1248,
			"byteOffset":407008,
			"target":34962
		},
		{
			"buffer":0,
			"byteLength":1584,
			"byteOffset":408256,
			"target":34963
		},
		{
			"buffer":0,
			"byteLength":3444,
			"byteOffset":409840,
			"target":34962
		},
		{
			"buffer":0,
			"byteLength":3444,
			"byteOffset":413284,
			"target":34962
		},
		{
			"buffer":0,
			"byteLength":2296,
			"byteOffset":416728,
			"target":34962
		},
		{
			"buffer":0,
			"byteLength":3444,
			"byteOffset":419024,
			"target":34962
		},
		{
			"buffer":0,
			"byteLength":3444,
			"byteOffset":422468,
			"target":34962
		},
		{
			"buffer":0,
			"byteLength":2296,
			"byteOffset":425912,
			"target":34962
		},
		{
			"buffer":0,
			"byteLength":3444,
			"byteOffset":428208,
			"target":34962
		},
		{
			"buffer":0,
			"byteLength":3444,
			"byteOffset":431652,
			"target":34962
		},
		{
			"buffer":0,
			"byteLength":2296,
			"byteOffset":435096,
			"target":34962
		},
		{
			"buffer":0,
			"byteLength":3444,
			"byteOffset":437392,
			"target":34962
		},
		{
			"buffer":0,
			"byteLength":3444,
			"byteOffset":440836,
			"target":34962
		},
		{
			"buffer":0,
			"byteLength":2296,
			"byteOffset":444280,
			"target":34962
		},
		{
			"buffer":0,
			"byteLength":3444,
			"byteOffset":446576,
			"target":34962
		},
		{
			"buffer":0,
			"byteLength":3444,
			"byteOffset":450020,
			"target":34962
		},
		{
			"buffer":0,
			"byteLength":2296,
			"byteOffset":453464,
			"target":34962
		},
		{
			"buffer":0,
			"byteLength":3444,
			"byteOffset":455760,
			"target":34962
		},
		{
			"buffer":0,
			"byteLength":3444,
			"byteOffset":459204,
			"target":34962
		},
		{
			"buffer":0,
			"byteLength":2296,
			"byteOffset":462648,
			"target":34962
		},
		{
			"buffer":0,
			"byteLength":3444,
			"byteOffset":464944,
			"target":34962
		},
		{
			"buffer":0,
			"byteLength":3444,
			"byteOffset":468388,
			"target":34962
		},
		{
			"buffer":0,
			"byteLength":2296,
			"byteOffset":471832,
			"target":34962
		},
		{
			"buffer":0,
			"byteLength":3444,
			"byteOffset":474128,
			"target":34962
		},
		{
			"buffer":0,
			"byteLength":3444,
			"byteOffset":477572,
			"target":34962
		},
		{
			"buffer":0,
			"byteLength":2296,
			"byteOffset":481016,
			"target":34962
		}
	],
	"buffers":[
		{
			"byteLength":483312,
			"uri":"cookiie.bin"
		}
	]
}
