{
	"asset":{
		"generator":"Khronos glTF Blender I/O v4.4.56",
		"version":"2.0"
	},
	"scene":0,
	"scenes":[
		{
			"name":"Scene",
			"nodes":[
				0,
				1,
				2,
				3,
				4,
				5,
				6
			]
		}
	],
	"nodes":[
		{
			"mesh":0,
			"name":"Cube"
		},
		{
			"mesh":1,
			"name":"Cube.001",
			"scale":[
				0.07823383808135986,
				1.134068489074707,
				0.07823383808135986
			],
			"translation":[
				-0.023606017231941223,
				1.3945368528366089,
				0.028518319129943848
			]
		},
		{
			"mesh":2,
			"name":"Cube.002",
			"rotation":[
				0.023560527712106705,
				-0.11971911787986755,
				0.48236677050590515,
				0.8674298524856567
			],
			"scale":[
				0.33994174003601074,
				0.4036944508552551,
				0.10325761884450912
			],
			"translation":[
				-0.3044091463088989,
				1.2846053838729858,
				-0.015208380296826363
			]
		},
		{
			"mesh":3,
			"name":"Cube.003",
			"rotation":[
				-0.0007253991207107902,
				0.0362849198281765,
				-0.6598512530326843,
				0.7505192756652832
			],
			"scale":[
				0.3079841732978821,
				0.4036945104598999,
				0.10325761884450912
			],
			"translation":[
				0.29763656854629517,
				1.1774320602416992,
				-0.019310064613819122
			]
		},
		{
			"mesh":4,
			"name":"Sphere",
			"scale":[
				0.5161281824111938,
				0.5161281824111938,
				0.5161281824111938
			],
			"translation":[
				-0.04976997151970863,
				3.006230592727661,
				0.1300223171710968
			]
		},
		{
			"mesh":5,
			"name":"Cube.004",
			"rotation":[
				0.7082279920578003,
				-0.010116101242601871,
				-0.01603449136018753,
				0.7057291865348816
			],
			"scale":[
				0.8042378425598145,
				0.8042379021644592,
				0.804237961769104
			],
			"translation":[
				-0.8152754902839661,
				2.0483815670013428,
				0.3165915012359619
			]
		},
		{
			"name":"Empty",
			"rotation":[
				0,
				0.5877853035926819,
				0,
				0.80901700258255
			],
			"translation":[
				-2.6609716415405273,
				1.1541175842285156,
				-1.4977540969848633
			]
		}
	],
	"materials":[
		{
			"doubleSided":true,
			"name":"Material",
			"pbrMetallicRoughness":{
				"baseColorFactor":[
					0.14695455133914948,
					0.06813913583755493,
					0.043900858610868454,
					1
				],
				"metallicFactor":0,
				"roughnessFactor":0.5
			}
		},
		{
			"doubleSided":true,
			"name":"Material.001",
			"pbrMetallicRoughness":{
				"baseColorFactor":[
					0.06115333363413811,
					0.19427946209907532,
					0.020898140966892242,
					1
				],
				"metallicFactor":0,
				"roughnessFactor":0.5
			}
		},
		{
			"doubleSided":true,
			"name":"Material.002",
			"pbrMetallicRoughness":{
				"baseColorFactor":[
					0.8516032695770264,
					0.632933497428894,
					0.010554645210504532,
					1
				],
				"metallicFactor":0,
				"roughnessFactor":0.5
			}
		},
		{
			"doubleSided":true,
			"name":"Material.003",
			"pbrMetallicRoughness":{
				"baseColorFactor":[
					0.8009926080703735,
					0.09251956641674042,
					0.603945255279541,
					1
				],
				"metallicFactor":0,
				"roughnessFactor":0.5
			}
		}
	],
	"meshes":[
		{
			"name":"Cube",
			"primitives":[
				{
					"attributes":{
						"POSITION":0,
						"NORMAL":1,
						"TEXCOORD_0":2
					},
					"indices":3,
					"material":0
				}
			]
		},
		{
			"name":"Cube.001",
			"primitives":[
				{
					"attributes":{
						"POSITION":4,
						"NORMAL":5,
						"TEXCOORD_0":6
					},
					"indices":7,
					"material":1
				}
			]
		},
		{
			"name":"Cube.002",
			"primitives":[
				{
					"attributes":{
						"POSITION":8,
						"NORMAL":9,
						"TEXCOORD_0":10
					},
					"indices":11,
					"material":1
				}
			]
		},
		{
			"name":"Cube.003",
			"primitives":[
				{
					"attributes":{
						"POSITION":12,
						"NORMAL":13,
						"TEXCOORD_0":14
					},
					"indices":11,
					"material":1
				}
			]
		},
		{
			"name":"Sphere",
			"primitives":[
				{
					"attributes":{
						"POSITION":15,
						"NORMAL":16,
						"TEXCOORD_0":17
					},
					"indices":18,
					"material":2
				}
			]
		},
		{
			"name":"Cube.004",
			"primitives":[
				{
					"attributes":{
						"POSITION":19,
						"NORMAL":20,
						"TEXCOORD_0":21
					},
					"indices":22,
					"material":3
				}
			]
		}
	],
	"accessors":[
		{
			"bufferView":0,
			"componentType":5126,
			"count":398,
			"max":[
				1.0296159982681274,
				0.9105329513549805,
				1.0296159982681274
			],
			"min":[
				-1.0296159982681274,
				-1.0000001192092896,
				-1.0296159982681274
			],
			"type":"VEC3"
		},
		{
			"bufferView":1,
			"componentType":5126,
			"count":398,
			"type":"VEC3"
		},
		{
			"bufferView":2,
			"componentType":5126,
			"count":398,
			"type":"VEC2"
		},
		{
			"bufferView":3,
			"componentType":5123,
			"count":2112,
			"type":"SCALAR"
		},
		{
			"bufferView":4,
			"componentType":5126,
			"count":22,
			"max":[
				2.7035953998565674,
				1,
				1
			],
			"min":[
				-2.5597569942474365,
				-1,
				-1.2155247926712036
			],
			"type":"VEC3"
		},
		{
			"bufferView":5,
			"componentType":5126,
			"count":22,
			"type":"VEC3"
		},
		{
			"bufferView":6,
			"componentType":5126,
			"count":22,
			"type":"VEC2"
		},
		{
			"bufferView":7,
			"componentType":5123,
			"count":78,
			"type":"SCALAR"
		},
		{
			"bufferView":8,
			"componentType":5126,
			"count":14,
			"max":[
				1,
				1.0021562576293945,
				1
			],
			"min":[
				-1.0020555257797241,
				-1,
				-0.867036759853363
			],
			"type":"VEC3"
		},
		{
			"bufferView":9,
			"componentType":5126,
			"count":14,
			"type":"VEC3"
		},
		{
			"bufferView":10,
			"componentType":5126,
			"count":14,
			"type":"VEC2"
		},
		{
			"bufferView":11,
			"componentType":5123,
			"count":36,
			"type":"SCALAR"
		},
		{
			"bufferView":12,
			"componentType":5126,
			"count":14,
			"max":[
				1,
				1.0021562576293945,
				1
			],
			"min":[
				-1.0020555257797241,
				-1,
				-0.867036759853363
			],
			"type":"VEC3"
		},
		{
			"bufferView":13,
			"componentType":5126,
			"count":14,
			"type":"VEC3"
		},
		{
			"bufferView":14,
			"componentType":5126,
			"count":14,
			"type":"VEC2"
		},
		{
			"bufferView":15,
			"componentType":5126,
			"count":559,
			"max":[
				0.9999997019767761,
				1,
				0.9999993443489075
			],
			"min":[
				-0.9999990463256836,
				-1,
				-1
			],
			"type":"VEC3"
		},
		{
			"bufferView":16,
			"componentType":5126,
			"count":559,
			"type":"VEC3"
		},
		{
			"bufferView":17,
			"componentType":5126,
			"count":559,
			"type":"VEC2"
		},
		{
			"bufferView":18,
			"componentType":5123,
			"count":2880,
			"type":"SCALAR"
		},
		{
			"bufferView":19,
			"componentType":5126,
			"count":70,
			"max":[
				3.607606887817383,
				0.20685070753097534,
				1.2600735425949097
			],
			"min":[
				-1.781973958015442,
				-0.5531238317489624,
				-3.9957590103149414
			],
			"type":"VEC3"
		},
		{
			"bufferView":20,
			"componentType":5126,
			"count":70,
			"type":"VEC3"
		},
		{
			"bufferView":21,
			"componentType":5126,
			"count":70,
			"type":"VEC2"
		},
		{
			"bufferView":22,
			"componentType":5123,
			"count":180,
			"type":"SCALAR"
		}
	],
	"bufferViews":[
		{
			"buffer":0,
			"byteLength":4776,
			"byteOffset":0,
			"target":34962
		},
		{
			"buffer":0,
			"byteLength":4776,
			"byteOffset":4776,
			"target":34962
		},
		{
			"buffer":0,
			"byteLength":3184,
			"byteOffset":9552,
			"target":34962
		},
		{
			"buffer":0,
			"byteLength":4224,
			"byteOffset":12736,
			"target":34963
		},
		{
			"buffer":0,
			"byteLength":264,
			"byteOffset":16960,
			"target":34962
		},
		{
			"buffer":0,
			"byteLength":264,
			"byteOffset":17224,
			"target":34962
		},
		{
			"buffer":0,
			"byteLength":176,
			"byteOffset":17488,
			"target":34962
		},
		{
			"buffer":0,
			"byteLength":156,
			"byteOffset":17664,
			"target":34963
		},
		{
			"buffer":0,
			"byteLength":168,
			"byteOffset":17820,
			"target":34962
		},
		{
			"buffer":0,
			"byteLength":168,
			"byteOffset":17988,
			"target":34962
		},
		{
			"buffer":0,
			"byteLength":112,
			"byteOffset":18156,
			"target":34962
		},
		{
			"buffer":0,
			"byteLength":72,
			"byteOffset":18268,
			"target":34963
		},
		{
			"buffer":0,
			"byteLength":168,
			"byteOffset":18340,
			"target":34962
		},
		{
			"buffer":0,
			"byteLength":168,
			"byteOffset":18508,
			"target":34962
		},
		{
			"buffer":0,
			"byteLength":112,
			"byteOffset":18676,
			"target":34962
		},
		{
			"buffer":0,
			"byteLength":6708,
			"byteOffset":18788,
			"target":34962
		},
		{
			"buffer":0,
			"byteLength":6708,
			"byteOffset":25496,
			"target":34962
		},
		{
			"buffer":0,
			"byteLength":4472,
			"byteOffset":32204,
			"target":34962
		},
		{
			"buffer":0,
			"byteLength":5760,
			"byteOffset":36676,
			"target":34963
		},
		{
			"buffer":0,
			"byteLength":840,
			"byteOffset":42436,
			"target":34962
		},
		{
			"buffer":0,
			"byteLength":840,
			"byteOffset":43276,
			"target":34962
		},
		{
			"buffer":0,
			"byteLength":560,
			"byteOffset":44116,
			"target":34962
		},
		{
			"buffer":0,
			"byteLength":360,
			"byteOffset":44676,
			"target":34963
		}
	],
	"buffers":[
		{
			"byteLength":45036,
			"uri":"flower.bin"
		}
	]
}
